{
  "accessors": [
    {
      "bufferView": 2,
      "componentType": 5126,
      "count": 4168,
      "max": [
        9.167099952697754,
        5.625999927520752,
        15.92590045928955
      ],
      "min": [
        -8.211299896240234,
        -10.947199821472168,
        -0.2939000129699707
      ],
      "type": "VEC3"
    },
    {
      "bufferView": 2,
      "byteOffset": 50016,
      "componentType": 5126,
      "count": 4168,
      "max": [
        0.9999966621398926,
        0.999984622001648,
        1.0
      ],
      "min": [
        -0.9999966621398926,
        -0.99989914894104,
        -1.0
      ],
      "type": "VEC3"
    },
    {
      "bufferView": 3,
      "componentType": 5126,
      "count": 4168,
      "max": [
        0.9999982118606567,
        0.9999324083328247,
        1.0,
        1.0
      ],
      "min": [
        -0.9999967813491821,
        -0.9999853372573853,
        -1.0,
        -1.0
      ],
      "type": "VEC4"
    },
    {
      "bufferView": 1,
      "componentType": 5126,
      "count": 4168,
      "max": [
        0.9958000183105469,
        0.996399998664856
      ],
      "min": [
        0.006000000052154064,
        0.00430000014603138
      ],
      "type": "VEC2"
    },
    {
      "bufferView": 0,
      "componentType": 5125,
      "count": 9390,
      "type": "SCALAR"
    },
    {
      "bufferView": 2,
      "byteOffset": 100032,
      "componentType": 5126,
      "count": 3060,
      "max": [
        9.167099952697754,
        6.017300128936768,
        15.92590045928955
      ],
      "min": [
        -8.211299896240234,
        -10.947199821472168,
        -0.2939000129699707
      ],
      "type": "VEC3"
    },
    {
      "bufferView": 2,
      "byteOffset": 136752,
      "componentType": 5126,
      "count": 3060,
      "max": [
        0.9999107122421265,
        0.9999749660491943,
        0.9998325705528259
      ],
      "min": [
        -0.9999831914901733,
        -0.9999055862426758,
        -1.0
      ],
      "type": "VEC3"
    },
    {
      "bufferView": 3,
      "byteOffset": 66688,
      "componentType": 5126,
      "count": 3060,
      "max": [
        0.9999967217445374,
        0.9997563362121582,
        1.0,
        1.0
      ],
      "min": [
        -0.9999967217445374,
        -0.9995015859603882,
        -1.0,
        -1.0
      ],
      "type": "VEC4"
    },
    {
      "bufferView": 1,
      "byteOffset": 33344,
      "componentType": 5126,
      "count": 3060,
      "max": [
        0.9959999918937683,
        0.9933000206947327
      ],
      "min": [
        0.0035000001080334187,
        0.005400000140070915
      ],
      "type": "VEC2"
    },
    {
      "bufferView": 0,
      "byteOffset": 37560,
      "componentType": 5125,
      "count": 6822,
      "type": "SCALAR"
    },
    {
      "bufferView": 2,
      "byteOffset": 173472,
      "componentType": 5126,
      "count": 3940,
      "max": [
        9.167099952697754,
        6.017300128936768,
        15.92590045928955
      ],
      "min": [
        -8.211299896240234,
        -10.947199821472168,
        -0.2939000129699707
      ],
      "type": "VEC3"
    },
    {
      "bufferView": 2,
      "byteOffset": 220752,
      "componentType": 5126,
      "count": 3940,
      "max": [
        0.9999966621398926,
        0.9999326467514038,
        1.0
      ],
      "min": [
        -0.9999966621398926,
        -0.999737560749054,
        -1.0
      ],
      "type": "VEC3"
    },
    {
      "bufferView": 3,
      "byteOffset": 115648,
      "componentType": 5126,
      "count": 3940,
      "max": [
        0.9999997615814209,
        0.9999833106994629,
        0.9996535778045654,
        1.0
      ],
      "min": [
        -0.9999995231628418,
        -0.9996657371520996,
        -0.9999997615814209,
        -1.0
      ],
      "type": "VEC4"
    },
    {
      "bufferView": 1,
      "byteOffset": 57824,
      "componentType": 5126,
      "count": 3940,
      "max": [
        0.9962000250816345,
        0.9962999820709229
      ],
      "min": [
        0.0035000001080334187,
        0.00419999985024333
      ],
      "type": "VEC2"
    },
    {
      "bufferView": 0,
      "byteOffset": 64848,
      "componentType": 5125,
      "count": 10338,
      "type": "SCALAR"
    }
  ],
  "asset": {
    "extras": {
      "author": "Artem Shupa-Dubrova (https://sketchfab.com/fxtema)",
      "license": "CC-BY-ND-4.0 (http://creativecommons.org/licenses/by-nd/4.0/)",
      "source": "https://sketchfab.com/3d-models/robo-obj-pose4-uaeYu2fwakD1e1bWp5Cxu3XAqrt",
      "title": "Robo_OBJ_pose4"
    },
    "generator": "Sketchfab-12.68.0",
    "version": "2.0"
  },
  "bufferViews": [
    {
      "buffer": 0,
      "byteLength": 106200,
      "name": "floatBufferViews",
      "target": 34963
    },
    {
      "buffer": 0,
      "byteLength": 89344,
      "byteOffset": 106200,
      "byteStride": 8,
      "name": "floatBufferViews",
      "target": 34962
    },
    {
      "buffer": 0,
      "byteLength": 268032,
      "byteOffset": 195544,
      "byteStride": 12,
      "name": "floatBufferViews",
      "target": 34962
    },
    {
      "buffer": 0,
      "byteLength": 178688,
      "byteOffset": 463576,
      "byteStride": 16,
      "name": "floatBufferViews",
      "target": 34962
    }
  ],
  "buffers": [
    {
      "byteLength": 642264,
      "uri": "scene.bin"
    }
  ],
  "images": [
    {
      "uri": "textures/material_0_baseColor.jpeg"
    },
    {
      "uri": "textures/material_0_metallicRoughness.png"
    },
    {
      "uri": "textures/material_0_emissive.jpeg"
    },
    {
      "uri": "textures/material_0_normal.jpeg"
    }
  ],
  "materials": [
    {
      "doubleSided": true,
      "emissiveFactor": [
        1.0,
        1.0,
        1.0
      ],
      "emissiveTexture": {
        "index": 2
      },
      "name": "material_0",
      "normalTexture": {
        "index": 3
      },
      "pbrMetallicRoughness": {
        "baseColorTexture": {
          "index": 0
        },
        "metallicRoughnessTexture": {
          "index": 1
        }
      }
    }
  ],
  "meshes": [
    {
      "name": "Object_0",
      "primitives": [
        {
          "attributes": {
            "NORMAL": 1,
            "POSITION": 0,
            "TANGENT": 2,
            "TEXCOORD_0": 3
          },
          "indices": 4,
          "material": 0,
          "mode": 4
        }
      ]
    },
    {
      "name": "Object_1",
      "primitives": [
        {
          "attributes": {
            "NORMAL": 6,
            "POSITION": 5,
            "TANGENT": 7,
            "TEXCOORD_0": 8
          },
          "indices": 9,
          "material": 0,
          "mode": 4
        }
      ]
    },
    {
      "name": "Object_2",
      "primitives": [
        {
          "attributes": {
            "NORMAL": 11,
            "POSITION": 10,
            "TANGENT": 12,
            "TEXCOORD_0": 13
          },
          "indices": 14,
          "material": 0,
          "mode": 4
        }
      ]
    }
  ],
  "nodes": [
    {
      "children": [
        1
      ],
      "matrix": [
        1.0,
        0.0,
        0.0,
        0.0,
        0.0,
        2.220446049250313e-16,
        -1.0,
        0.0,
        0.0,
        1.0,
        2.220446049250313e-16,
        0.0,
        0.0,
        0.0,
        0.0,
        1.0
      ],
      "name": "Sketchfab_model"
    },
    {
      "children": [
        2,
        3,
        4
      ],
      "name": "d2f0cff60afc40f5afe79156ec7db657.obj.cleaner.materialmerger.gles"
    },
    {
      "mesh": 0,
      "name": "Object_2"
    },
    {
      "mesh": 1,
      "name": "Object_3"
    },
    {
      "mesh": 2,
      "name": "Object_4"
    }
  ],
  "samplers": [
    {
      "magFilter": 9729,
      "minFilter": 9987,
      "wrapS": 10497,
      "wrapT": 10497
    }
  ],
  "scene": 0,
  "scenes": [
    {
      "name": "Sketchfab_Scene",
      "nodes": [
        0
      ]
    }
  ],
  "textures": [
    {
      "sampler": 0,
      "source": 0
    },
    {
      "sampler": 0,
      "source": 1
    },
    {
      "sampler": 0,
      "source": 2
    },
    {
      "sampler": 0,
      "source": 3
    }
  ]
}
